<svg width="40" height="40" viewBox="0 0 40 40" fill="none" xmlns="http://www.w3.org/2000/svg">
<path fill-rule="evenodd" clip-rule="evenodd" d="M26 13C26 16.3137 23.3137 19 20 19C16.6863 19 14 16.3137 14 13C14 9.68629 16.6863 7 20 7C23.3137 7 26 9.68629 26 13ZM24 13C24 15.2091 22.2091 17 20 17C17.7909 17 16 15.2091 16 13C16 10.7909 17.7909 9 20 9C22.2091 9 24 10.7909 24 13Z" fill="#282336"/>
<path fill-rule="evenodd" clip-rule="evenodd" d="M20 21C28.5198 21 31.0021 27.5863 31.7165 31C31.9664 32.1941 32 33 32 33H8C8 33 8.03358 32.1941 8.28348 31C8.99789 27.5863 11.4802 21 20 21ZM28.5387 27.9239C29.0978 28.9975 29.449 30.0867 29.6672 31H10.3328C10.551 30.0867 10.9022 28.9975 11.4613 27.9239C12.1286 26.6428 13.0681 25.428 14.3936 24.5319C15.7022 23.6472 17.4935 23 20 23C22.5065 23 24.2977 23.6472 25.6064 24.5319C26.9319 25.428 27.8714 26.6428 28.5387 27.9239Z" fill="#282336"/>
</svg>
