<svg width="56" height="56" viewBox="0 0 56 56" fill="none" xmlns="http://www.w3.org/2000/svg">
<path d="M21 23.8H18.2V26.6H21V23.8Z" fill="#282336"/>
<path d="M18.2 30.8H21V33.6H18.2V30.8Z" fill="#282336"/>
<path d="M21 37.8H18.2V40.6H21V37.8Z" fill="#282336"/>
<path d="M26.6 23.8H29.4V26.6H26.6V23.8Z" fill="#282336"/>
<path d="M29.4 30.8H26.6V33.6H29.4V30.8Z" fill="#282336"/>
<path d="M26.6 37.8H29.4V40.6H26.6V37.8Z" fill="#282336"/>
<path d="M37.8 23.8H35V26.6H37.8V23.8Z" fill="#282336"/>
<path d="M35 30.8H37.8V33.6H35V30.8Z" fill="#282336"/>
<path d="M37.8 37.8H35V40.6H37.8V37.8Z" fill="#282336"/>
<path fill-rule="evenodd" clip-rule="evenodd" d="M20.4001 11.5001H35.5999V7H38.3999V11.5001H49V49.0001H7V11.5001H17.6001V7H20.4001V11.5001ZM17.6001 14.3001V19H20.4001V14.3001H35.5999V19H38.3999V14.3001H46.2V46.2001H9.8V14.3001H17.6001Z" fill="#282336"/>
</svg>
