<svg width="40" height="40" viewBox="0 0 40 40" fill="none" xmlns="http://www.w3.org/2000/svg">
<path d="M8 19.5C8 13.1487 13.1487 8 19.5 8C22.3935 8 25.0353 9.06734 27.0568 10.8312L28.3717 9.32418C25.9998 7.25464 22.8952 6 19.5 6C12.0442 6 6 12.0442 6 19.5C6 26.9558 12.0442 33 19.5 33C26.9558 33 33 26.9558 33 19.5C33 18.3014 32.8435 17.1378 32.5494 16.0293L30.6163 16.5422C30.8664 17.4849 31 18.4761 31 19.5C31 25.8513 25.8513 31 19.5 31C13.1487 31 8 25.8513 8 19.5Z" fill="#282336"/>
<path d="M19.4908 25.4058L32.7197 11.6943L31.2804 10.3057L19.4244 22.5941L13.6862 17.1824L12.314 18.6374L19.4908 25.4058Z" fill="#282336"/>
</svg>
